<svg width="16" height="16" viewBox="0 0 16 16" fill="none" xmlns="http://www.w3.org/2000/svg">
<g clip-path="url(#clip0_12410_541)">
<path d="M12.8 3.20001H3.20001C2.31626 3.20001 1.60001 3.91626 1.60001 4.80001V11.2C1.60001 12.0838 2.31626 12.8 3.20001 12.8H12.8C13.6838 12.8 14.4 12.0838 14.4 11.2V4.80001C14.4 3.91626 13.6825 3.20001 12.8 3.20001ZM3.20001 4.40001H12.8C13.0206 4.40001 13.2 4.57946 13.2 4.80001V5.35401L9.03001 8.80651C8.45026 9.28851 7.54651 9.28826 6.96826 8.8069L2.80001 5.35501V4.80001C2.80001 4.58001 2.97951 4.40001 3.20001 4.40001ZM12.8 11.6H3.20001C2.97946 11.6 2.80001 11.4206 2.80001 11.2V6.91751L6.20251 9.75251C6.70751 10.17 7.34501 10.4 8.00001 10.4C8.65501 10.4 9.29376 10.1703 9.79926 9.75051L13.2 6.91751V11.2C13.2 11.42 13.02 11.6 12.8 11.6Z" fill="white"/>
</g>
<defs>
<clipPath id="clip0_12410_541">
<rect width="12.8" height="12.8" fill="white" transform="translate(1.60001 1.60001)"/>
</clipPath>
</defs>
</svg>
