<svg width="16" height="16" viewBox="0 0 16 16" fill="none" xmlns="http://www.w3.org/2000/svg">
<g clip-path="url(#clip0_12498_530)">
<path d="M14.4 4.79999V11.2C14.4 12.5255 13.3255 13.6 12 13.6H10.2C9.86751 13.6 9.60001 13.3325 9.60001 13C9.60001 12.6685 9.86876 12.4 10.2 12.4H12C12.66 12.4 13.2 11.86 13.2 11.2V4.79999C13.2 4.13999 12.66 3.59999 12 3.59999H10.2C9.86751 3.59999 9.60001 3.33124 9.60001 2.99999C9.60001 2.66849 9.86751 2.39999 10.2 2.39999H12C13.325 2.39999 14.4 3.47449 14.4 4.79999ZM10.2375 7.58999L7.03751 4.18999C6.81001 3.94699 6.43001 3.93599 6.19001 4.16249C5.94751 4.38999 5.93501 4.76999 6.16251 5.00999L8.41001 7.39999H2.20001C1.86876 7.39999 1.60001 7.66999 1.60001 7.99999C1.60001 8.32999 1.86876 8.59999 2.20001 8.59999H8.41001L6.16201 10.989C5.93466 11.2304 5.94638 11.61 6.18778 11.8367C6.30501 11.945 6.45251 12 6.60001 12C6.75938 12 6.91876 11.9367 7.03676 11.8109L10.2368 8.41094C10.455 8.17999 10.455 7.81999 10.2375 7.58999Z" fill="#F21F17"/>
</g>
<defs>
<clipPath id="clip0_12498_530">
<rect width="12.8" height="12.8" fill="white" transform="translate(1.60001 1.60001)"/>
</clipPath>
</defs>
</svg>
