<svg width="16" height="16" viewBox="0 0 16 16" fill="none" xmlns="http://www.w3.org/2000/svg">
<g clip-path="url(#clip0_12410_610)">
<path d="M8.8 2.40001V2.84701C10.6125 3.13476 12 4.70501 12 6.60001V7.43501C12 8.57001 12.3875 9.67251 13.095 10.56L13.4675 11.025C13.6125 11.205 13.64 11.4525 13.54 11.66C13.44 11.8675 13.23 12 13 12H3C2.76925 12 2.55912 11.8675 2.45922 11.66C2.3593 11.4525 2.3874 11.205 2.5315 11.025L2.90425 10.56C3.6135 9.67251 4 8.57001 4 7.43501V6.60001C4 4.70501 5.3875 3.13476 7.2 2.84701V2.40001C7.2 1.95826 7.5575 1.60001 8 1.60001C8.4425 1.60001 8.8 1.95826 8.8 2.40001ZM7.8 4.00001C6.365 4.00001 5.2 5.16501 5.2 6.60001V7.43501C5.2 8.63251 4.853 9.80001 4.20775 10.8H11.7925C11.1475 9.80001 10.8 8.63251 10.8 7.43501V6.60001C10.8 5.16501 9.635 4.00001 8.2 4.00001H7.8ZM9.6 12.8C9.6 13.2025 9.4325 13.6325 9.1325 13.9325C8.8325 14.2325 8.4025 14.4 8 14.4C7.575 14.4 7.1675 14.2325 6.8675 13.9325C6.5675 13.6325 6.4 13.2025 6.4 12.8H9.6Z" fill="white"/>
</g>
<defs>
<clipPath id="clip0_12410_610">
<rect width="11.2" height="12.8" fill="white" transform="translate(2.39999 1.60001)"/>
</clipPath>
</defs>
</svg>
