<svg width="20" height="20" viewBox="0 0 20 20" fill="none" xmlns="http://www.w3.org/2000/svg">
<g clip-path="url(#clip0_142_7349)">
<path d="M13.3344 2.60377C14.1156 1.82259 15.3844 1.82259 16.1656 2.60377L17.3969 3.83596C18.1781 4.6169 18.1781 5.8844 17.3969 6.66565L15.8844 8.17815L11.8219 4.11627L13.3344 2.60377ZM15.1781 8.8844L7.89062 16.1688C7.56562 16.4938 7.1625 16.7344 6.72187 16.8625L2.96156 17.9688C2.69843 18.0469 2.41374 17.975 2.21968 17.7531C2.02561 17.5875 1.95306 17.3031 2.03049 17.0375L3.13656 13.2781C3.26656 12.8375 3.50499 12.4344 3.83031 12.1094L11.1156 4.82315L15.1781 8.8844Z" fill="#020202"/>
</g>
<defs>
<clipPath id="clip0_142_7349">
<rect width="16" height="16" fill="white" transform="translate(2 2)"/>
</clipPath>
</defs>
</svg>
