<svg width="20" height="20" viewBox="0 0 20 20" fill="none" xmlns="http://www.w3.org/2000/svg">
<g clip-path="url(#clip0_142_7320)">
<path d="M7.225 2.55313C7.39375 2.2125 7.74062 2 8.11875 2H11.8813C12.2594 2 12.6062 2.2125 12.775 2.55313L13 3H16C16.5531 3 17 3.44687 17 4C17 4.55312 16.5531 5 16 5H4C3.44687 5 3 4.55312 3 4C3 3.44687 3.44687 3 4 3H7L7.225 2.55313ZM4 6H16V16C16 17.1031 15.1031 18 14 18H6C4.89688 18 4 17.1031 4 16V6ZM7 8C6.725 8 6.5 8.225 6.5 8.5V15.5C6.5 15.775 6.725 16 7 16C7.275 16 7.5 15.775 7.5 15.5V8.5C7.5 8.225 7.275 8 7 8ZM10 8C9.725 8 9.5 8.225 9.5 8.5V15.5C9.5 15.775 9.725 16 10 16C10.275 16 10.5 15.775 10.5 15.5V8.5C10.5 8.225 10.275 8 10 8ZM13 8C12.725 8 12.5 8.225 12.5 8.5V15.5C12.5 15.775 12.725 16 13 16C13.275 16 13.5 15.775 13.5 15.5V8.5C13.5 8.225 13.275 8 13 8Z" fill="#020202"/>
</g>
<defs>
<clipPath id="clip0_142_7320">
<rect width="14" height="16" fill="white" transform="translate(3 2)"/>
</clipPath>
</defs>
</svg>
